<mxfile host="app.diagrams.net" agent="Mozilla/5.0 (Windows NT 10.0; Win64; x64) AppleWebKit/537.36 (KHTML, like Gecko) Chrome/132.0.0.0 Safari/537.36" version="26.0.5">
  <diagram name="Page-1" id="EZSs8bJ5LWTXR7K6mUZw">
    <mxGraphModel dx="1235" dy="614" grid="1" gridSize="10" guides="1" tooltips="1" connect="1" arrows="1" fold="1" page="1" pageScale="1" pageWidth="827" pageHeight="1169" math="0" shadow="0">
      <root>
        <mxCell id="0" />
        <mxCell id="1" parent="0" />
        <mxCell id="mCspvE2qaWAkcVD_-xbG-38" style="edgeStyle=orthogonalEdgeStyle;rounded=0;orthogonalLoop=1;jettySize=auto;html=1;exitX=0.5;exitY=1;exitDx=0;exitDy=0;entryX=0.5;entryY=0;entryDx=0;entryDy=0;" edge="1" parent="1" source="mCspvE2qaWAkcVD_-xbG-1" target="mCspvE2qaWAkcVD_-xbG-4">
          <mxGeometry relative="1" as="geometry" />
        </mxCell>
        <mxCell id="mCspvE2qaWAkcVD_-xbG-1" value="client" style="rounded=1;whiteSpace=wrap;html=1;" vertex="1" parent="1">
          <mxGeometry x="280" y="240" width="80" height="40" as="geometry" />
        </mxCell>
        <mxCell id="mCspvE2qaWAkcVD_-xbG-14" style="edgeStyle=orthogonalEdgeStyle;rounded=0;orthogonalLoop=1;jettySize=auto;html=1;entryX=0.5;entryY=0;entryDx=0;entryDy=0;" edge="1" parent="1" source="mCspvE2qaWAkcVD_-xbG-3" target="mCspvE2qaWAkcVD_-xbG-5">
          <mxGeometry relative="1" as="geometry" />
        </mxCell>
        <mxCell id="mCspvE2qaWAkcVD_-xbG-36" style="edgeStyle=orthogonalEdgeStyle;rounded=0;orthogonalLoop=1;jettySize=auto;html=1;exitX=0;exitY=0.75;exitDx=0;exitDy=0;entryX=1;entryY=0.75;entryDx=0;entryDy=0;" edge="1" parent="1" source="mCspvE2qaWAkcVD_-xbG-3" target="mCspvE2qaWAkcVD_-xbG-1">
          <mxGeometry relative="1" as="geometry" />
        </mxCell>
        <mxCell id="mCspvE2qaWAkcVD_-xbG-3" value="server" style="rounded=1;whiteSpace=wrap;html=1;" vertex="1" parent="1">
          <mxGeometry x="440" y="240" width="80" height="40" as="geometry" />
        </mxCell>
        <mxCell id="mCspvE2qaWAkcVD_-xbG-4" value="in memory" style="rounded=1;whiteSpace=wrap;html=1;" vertex="1" parent="1">
          <mxGeometry x="280" y="360" width="80" height="40" as="geometry" />
        </mxCell>
        <mxCell id="mCspvE2qaWAkcVD_-xbG-5" value="cookies" style="rounded=1;whiteSpace=wrap;html=1;" vertex="1" parent="1">
          <mxGeometry x="440" y="360" width="80" height="40" as="geometry" />
        </mxCell>
        <mxCell id="mCspvE2qaWAkcVD_-xbG-9" value="&lt;font style=&quot;font-size: 7px;&quot;&gt;email&lt;/font&gt;&lt;div&gt;&lt;font style=&quot;font-size: 7px;&quot;&gt;password&lt;/font&gt;&lt;/div&gt;" style="text;html=1;align=center;verticalAlign=middle;whiteSpace=wrap;rounded=0;" vertex="1" parent="1">
          <mxGeometry x="370" y="230" width="60" height="30" as="geometry" />
        </mxCell>
        <mxCell id="mCspvE2qaWAkcVD_-xbG-12" style="edgeStyle=orthogonalEdgeStyle;rounded=0;orthogonalLoop=1;jettySize=auto;html=1;entryX=1;entryY=0.5;entryDx=0;entryDy=0;" edge="1" parent="1" source="mCspvE2qaWAkcVD_-xbG-10" target="mCspvE2qaWAkcVD_-xbG-3">
          <mxGeometry relative="1" as="geometry" />
        </mxCell>
        <mxCell id="mCspvE2qaWAkcVD_-xbG-10" value="DB" style="rounded=1;whiteSpace=wrap;html=1;" vertex="1" parent="1">
          <mxGeometry x="560" y="280" width="80" height="40" as="geometry" />
        </mxCell>
        <mxCell id="mCspvE2qaWAkcVD_-xbG-13" value="&lt;font style=&quot;font-size: 7px;&quot;&gt;email&lt;/font&gt;&lt;div&gt;&lt;font style=&quot;font-size: 7px;&quot;&gt;password&lt;/font&gt;&lt;/div&gt;" style="text;html=1;align=center;verticalAlign=middle;whiteSpace=wrap;rounded=0;rotation=-90;" vertex="1" parent="1">
          <mxGeometry x="510" y="260" width="60" height="30" as="geometry" />
        </mxCell>
        <mxCell id="mCspvE2qaWAkcVD_-xbG-17" value="&lt;font style=&quot;font-size: 7px;&quot;&gt;access token&lt;/font&gt;" style="text;html=1;align=center;verticalAlign=middle;whiteSpace=wrap;rounded=0;" vertex="1" parent="1">
          <mxGeometry x="370" y="270" width="60" height="10" as="geometry" />
        </mxCell>
        <mxCell id="mCspvE2qaWAkcVD_-xbG-18" value="&lt;font style=&quot;font-size: 7px;&quot;&gt;refresh token&lt;/font&gt;" style="text;html=1;align=center;verticalAlign=middle;whiteSpace=wrap;rounded=0;" vertex="1" parent="1">
          <mxGeometry x="480" y="330" width="60" height="10" as="geometry" />
        </mxCell>
        <mxCell id="mCspvE2qaWAkcVD_-xbG-27" value="User tries get access to protected route" style="text;html=1;align=left;verticalAlign=middle;whiteSpace=wrap;rounded=0;" vertex="1" parent="1">
          <mxGeometry x="255" y="480" width="125" height="30" as="geometry" />
        </mxCell>
        <mxCell id="mCspvE2qaWAkcVD_-xbG-34" style="edgeStyle=orthogonalEdgeStyle;rounded=0;orthogonalLoop=1;jettySize=auto;html=1;exitX=1;exitY=0.25;exitDx=0;exitDy=0;entryX=0.035;entryY=0.267;entryDx=0;entryDy=0;entryPerimeter=0;" edge="1" parent="1" source="mCspvE2qaWAkcVD_-xbG-1" target="mCspvE2qaWAkcVD_-xbG-3">
          <mxGeometry relative="1" as="geometry" />
        </mxCell>
        <mxCell id="mCspvE2qaWAkcVD_-xbG-39" value="&lt;font style=&quot;font-size: 7px;&quot;&gt;access token&lt;/font&gt;" style="text;html=1;align=center;verticalAlign=middle;whiteSpace=wrap;rounded=0;" vertex="1" parent="1">
          <mxGeometry x="320" y="330" width="60" height="10" as="geometry" />
        </mxCell>
        <mxCell id="mCspvE2qaWAkcVD_-xbG-54" style="edgeStyle=orthogonalEdgeStyle;rounded=0;orthogonalLoop=1;jettySize=auto;html=1;exitX=1;exitY=0.25;exitDx=0;exitDy=0;entryX=0;entryY=0.25;entryDx=0;entryDy=0;" edge="1" parent="1" source="mCspvE2qaWAkcVD_-xbG-41" target="mCspvE2qaWAkcVD_-xbG-44">
          <mxGeometry relative="1" as="geometry" />
        </mxCell>
        <mxCell id="mCspvE2qaWAkcVD_-xbG-41" value="client" style="rounded=1;whiteSpace=wrap;html=1;" vertex="1" parent="1">
          <mxGeometry x="280" y="520" width="80" height="40" as="geometry" />
        </mxCell>
        <mxCell id="mCspvE2qaWAkcVD_-xbG-43" style="edgeStyle=orthogonalEdgeStyle;rounded=0;orthogonalLoop=1;jettySize=auto;html=1;exitX=0;exitY=0.75;exitDx=0;exitDy=0;entryX=1;entryY=0.75;entryDx=0;entryDy=0;" edge="1" parent="1" source="mCspvE2qaWAkcVD_-xbG-44" target="mCspvE2qaWAkcVD_-xbG-41">
          <mxGeometry relative="1" as="geometry" />
        </mxCell>
        <mxCell id="mCspvE2qaWAkcVD_-xbG-59" style="edgeStyle=orthogonalEdgeStyle;rounded=0;orthogonalLoop=1;jettySize=auto;html=1;" edge="1" parent="1" source="mCspvE2qaWAkcVD_-xbG-44" target="mCspvE2qaWAkcVD_-xbG-58">
          <mxGeometry relative="1" as="geometry" />
        </mxCell>
        <mxCell id="mCspvE2qaWAkcVD_-xbG-44" value="server" style="rounded=1;whiteSpace=wrap;html=1;" vertex="1" parent="1">
          <mxGeometry x="440" y="520" width="80" height="40" as="geometry" />
        </mxCell>
        <mxCell id="mCspvE2qaWAkcVD_-xbG-45" value="in memory" style="rounded=1;whiteSpace=wrap;html=1;" vertex="1" parent="1">
          <mxGeometry x="280" y="640" width="80" height="40" as="geometry" />
        </mxCell>
        <mxCell id="mCspvE2qaWAkcVD_-xbG-47" value="&lt;font style=&quot;font-size: 7px;&quot;&gt;get dashboard&lt;/font&gt;&lt;div&gt;&lt;font style=&quot;font-size: 7px;&quot;&gt;access token&lt;/font&gt;&lt;/div&gt;" style="text;html=1;align=center;verticalAlign=middle;whiteSpace=wrap;rounded=0;" vertex="1" parent="1">
          <mxGeometry x="370" y="520" width="60" height="10" as="geometry" />
        </mxCell>
        <mxCell id="mCspvE2qaWAkcVD_-xbG-50" value="&lt;font style=&quot;font-size: 7px;&quot;&gt;access token&lt;/font&gt;" style="text;html=1;align=center;verticalAlign=middle;whiteSpace=wrap;rounded=0;" vertex="1" parent="1">
          <mxGeometry x="260" y="590" width="60" height="10" as="geometry" />
        </mxCell>
        <mxCell id="mCspvE2qaWAkcVD_-xbG-52" style="edgeStyle=orthogonalEdgeStyle;rounded=0;orthogonalLoop=1;jettySize=auto;html=1;exitX=0.5;exitY=0;exitDx=0;exitDy=0;entryX=0.5;entryY=1.071;entryDx=0;entryDy=0;entryPerimeter=0;" edge="1" parent="1" source="mCspvE2qaWAkcVD_-xbG-45" target="mCspvE2qaWAkcVD_-xbG-41">
          <mxGeometry relative="1" as="geometry" />
        </mxCell>
        <mxCell id="mCspvE2qaWAkcVD_-xbG-58" value="&lt;font style=&quot;font-size: 9px;&quot;&gt;secret key&lt;/font&gt;" style="text;html=1;align=center;verticalAlign=middle;whiteSpace=wrap;rounded=0;" vertex="1" parent="1">
          <mxGeometry x="580" y="535" width="50" height="10" as="geometry" />
        </mxCell>
        <mxCell id="mCspvE2qaWAkcVD_-xbG-62" value="&lt;div&gt;&lt;font style=&quot;font-size: 7px;&quot;&gt;access token&lt;/font&gt;&lt;/div&gt;" style="text;html=1;align=center;verticalAlign=middle;whiteSpace=wrap;rounded=0;" vertex="1" parent="1">
          <mxGeometry x="520" y="525" width="60" height="10" as="geometry" />
        </mxCell>
        <mxCell id="mCspvE2qaWAkcVD_-xbG-65" value="&lt;span style=&quot;font-size: 7px;&quot;&gt;dashboard&lt;/span&gt;" style="text;html=1;align=center;verticalAlign=middle;whiteSpace=wrap;rounded=0;" vertex="1" parent="1">
          <mxGeometry x="370" y="550" width="60" height="10" as="geometry" />
        </mxCell>
        <mxCell id="mCspvE2qaWAkcVD_-xbG-97" style="edgeStyle=orthogonalEdgeStyle;rounded=0;orthogonalLoop=1;jettySize=auto;html=1;exitX=0.25;exitY=1;exitDx=0;exitDy=0;entryX=0.25;entryY=0;entryDx=0;entryDy=0;" edge="1" parent="1" source="mCspvE2qaWAkcVD_-xbG-68" target="mCspvE2qaWAkcVD_-xbG-72">
          <mxGeometry relative="1" as="geometry" />
        </mxCell>
        <mxCell id="mCspvE2qaWAkcVD_-xbG-68" value="client" style="rounded=1;whiteSpace=wrap;html=1;" vertex="1" parent="1">
          <mxGeometry x="280" y="800" width="80" height="40" as="geometry" />
        </mxCell>
        <mxCell id="mCspvE2qaWAkcVD_-xbG-70" style="edgeStyle=orthogonalEdgeStyle;rounded=0;orthogonalLoop=1;jettySize=auto;html=1;exitX=0;exitY=0.75;exitDx=0;exitDy=0;entryX=1;entryY=0.75;entryDx=0;entryDy=0;" edge="1" parent="1" source="mCspvE2qaWAkcVD_-xbG-71" target="mCspvE2qaWAkcVD_-xbG-68">
          <mxGeometry relative="1" as="geometry" />
        </mxCell>
        <mxCell id="mCspvE2qaWAkcVD_-xbG-93" style="edgeStyle=orthogonalEdgeStyle;rounded=0;orthogonalLoop=1;jettySize=auto;html=1;exitX=1;exitY=0.25;exitDx=0;exitDy=0;entryX=0;entryY=0.5;entryDx=0;entryDy=0;" edge="1" parent="1" source="mCspvE2qaWAkcVD_-xbG-71" target="mCspvE2qaWAkcVD_-xbG-83">
          <mxGeometry relative="1" as="geometry" />
        </mxCell>
        <mxCell id="mCspvE2qaWAkcVD_-xbG-71" value="server" style="rounded=1;whiteSpace=wrap;html=1;" vertex="1" parent="1">
          <mxGeometry x="440" y="800" width="80" height="40" as="geometry" />
        </mxCell>
        <mxCell id="mCspvE2qaWAkcVD_-xbG-96" style="edgeStyle=orthogonalEdgeStyle;rounded=0;orthogonalLoop=1;jettySize=auto;html=1;exitX=0.75;exitY=0;exitDx=0;exitDy=0;entryX=0.75;entryY=1;entryDx=0;entryDy=0;" edge="1" parent="1" source="mCspvE2qaWAkcVD_-xbG-72" target="mCspvE2qaWAkcVD_-xbG-68">
          <mxGeometry relative="1" as="geometry" />
        </mxCell>
        <mxCell id="mCspvE2qaWAkcVD_-xbG-72" value="in memory" style="rounded=1;whiteSpace=wrap;html=1;" vertex="1" parent="1">
          <mxGeometry x="280" y="920" width="80" height="40" as="geometry" />
        </mxCell>
        <mxCell id="mCspvE2qaWAkcVD_-xbG-86" style="edgeStyle=orthogonalEdgeStyle;rounded=0;orthogonalLoop=1;jettySize=auto;html=1;exitX=0.5;exitY=0;exitDx=0;exitDy=0;entryX=0.5;entryY=1;entryDx=0;entryDy=0;" edge="1" parent="1" source="mCspvE2qaWAkcVD_-xbG-73" target="mCspvE2qaWAkcVD_-xbG-71">
          <mxGeometry relative="1" as="geometry" />
        </mxCell>
        <mxCell id="mCspvE2qaWAkcVD_-xbG-73" value="cookies" style="rounded=1;whiteSpace=wrap;html=1;" vertex="1" parent="1">
          <mxGeometry x="440" y="920" width="80" height="40" as="geometry" />
        </mxCell>
        <mxCell id="mCspvE2qaWAkcVD_-xbG-74" value="&lt;span style=&quot;font-size: 7px;&quot;&gt;get dashboard&lt;/span&gt;&lt;br&gt;&lt;div&gt;&lt;span style=&quot;font-size: 7px;&quot;&gt;access token&lt;/span&gt;&lt;/div&gt;" style="text;html=1;align=center;verticalAlign=middle;whiteSpace=wrap;rounded=0;" vertex="1" parent="1">
          <mxGeometry x="370" y="790" width="60" height="30" as="geometry" />
        </mxCell>
        <mxCell id="mCspvE2qaWAkcVD_-xbG-75" value="&lt;font style=&quot;font-size: 7px;&quot;&gt;dashboard&lt;/font&gt;&lt;div&gt;&lt;font style=&quot;font-size: 7px;&quot;&gt;new access token&lt;/font&gt;&lt;/div&gt;" style="text;html=1;align=center;verticalAlign=middle;whiteSpace=wrap;rounded=0;" vertex="1" parent="1">
          <mxGeometry x="370" y="820" width="60" height="20" as="geometry" />
        </mxCell>
        <mxCell id="mCspvE2qaWAkcVD_-xbG-76" style="edgeStyle=orthogonalEdgeStyle;rounded=0;orthogonalLoop=1;jettySize=auto;html=1;exitX=1;exitY=0.25;exitDx=0;exitDy=0;entryX=0.035;entryY=0.267;entryDx=0;entryDy=0;entryPerimeter=0;" edge="1" parent="1" source="mCspvE2qaWAkcVD_-xbG-68" target="mCspvE2qaWAkcVD_-xbG-71">
          <mxGeometry relative="1" as="geometry" />
        </mxCell>
        <mxCell id="mCspvE2qaWAkcVD_-xbG-77" value="&lt;font style=&quot;font-size: 7px;&quot;&gt;access token&lt;/font&gt;" style="text;html=1;align=center;verticalAlign=middle;whiteSpace=wrap;rounded=0;" vertex="1" parent="1">
          <mxGeometry x="340" y="870" width="60" height="10" as="geometry" />
        </mxCell>
        <mxCell id="mCspvE2qaWAkcVD_-xbG-78" value="Access token expired" style="text;html=1;align=left;verticalAlign=middle;whiteSpace=wrap;rounded=0;" vertex="1" parent="1">
          <mxGeometry x="280" y="760" width="80" height="30" as="geometry" />
        </mxCell>
        <mxCell id="mCspvE2qaWAkcVD_-xbG-83" value="&lt;font style=&quot;font-size: 9px;&quot;&gt;secret key&lt;/font&gt;" style="text;html=1;align=center;verticalAlign=middle;whiteSpace=wrap;rounded=0;" vertex="1" parent="1">
          <mxGeometry x="590" y="800" width="50" height="10" as="geometry" />
        </mxCell>
        <mxCell id="mCspvE2qaWAkcVD_-xbG-84" value="&lt;div&gt;&lt;font style=&quot;font-size: 7px;&quot;&gt;access token&lt;/font&gt;&lt;/div&gt;" style="text;html=1;align=center;verticalAlign=middle;whiteSpace=wrap;rounded=0;" vertex="1" parent="1">
          <mxGeometry x="520" y="790" width="60" height="10" as="geometry" />
        </mxCell>
        <mxCell id="mCspvE2qaWAkcVD_-xbG-90" value="&lt;font style=&quot;font-size: 7px;&quot;&gt;refresh token&lt;/font&gt;" style="text;html=1;align=center;verticalAlign=middle;whiteSpace=wrap;rounded=0;" vertex="1" parent="1">
          <mxGeometry x="480" y="860" width="60" height="10" as="geometry" />
        </mxCell>
        <mxCell id="mCspvE2qaWAkcVD_-xbG-94" style="edgeStyle=orthogonalEdgeStyle;rounded=0;orthogonalLoop=1;jettySize=auto;html=1;exitX=1;exitY=0.75;exitDx=0;exitDy=0;entryX=0.4;entryY=1;entryDx=0;entryDy=0;entryPerimeter=0;" edge="1" parent="1" source="mCspvE2qaWAkcVD_-xbG-71" target="mCspvE2qaWAkcVD_-xbG-83">
          <mxGeometry relative="1" as="geometry" />
        </mxCell>
        <mxCell id="mCspvE2qaWAkcVD_-xbG-95" value="&lt;font style=&quot;font-size: 7px;&quot;&gt;refresh token&lt;/font&gt;" style="text;html=1;align=center;verticalAlign=middle;whiteSpace=wrap;rounded=0;" vertex="1" parent="1">
          <mxGeometry x="530" y="830" width="60" height="10" as="geometry" />
        </mxCell>
        <mxCell id="mCspvE2qaWAkcVD_-xbG-98" value="&lt;font style=&quot;font-size: 7px;&quot;&gt;new access token&lt;/font&gt;" style="text;html=1;align=center;verticalAlign=middle;whiteSpace=wrap;rounded=0;" vertex="1" parent="1">
          <mxGeometry x="240" y="870" width="60" height="10" as="geometry" />
        </mxCell>
        <mxCell id="mCspvE2qaWAkcVD_-xbG-100" value="&lt;h1 style=&quot;margin-top: 0px;&quot;&gt;Signup/login case&lt;/h1&gt;&lt;p&gt;user registers or logins -&amp;gt; server validates email and password -&amp;gt; server generates refresh and access tokens -&amp;gt; refresh is stored in httpOnly cookies -&amp;gt; server sends response to the client with access token -&amp;gt; client stores access token in memory state -&amp;gt; client redirects user to the protected route.&lt;/p&gt;" style="text;html=1;whiteSpace=wrap;overflow=hidden;rounded=0;" vertex="1" parent="1">
          <mxGeometry x="680" y="240" width="280" height="170" as="geometry" />
        </mxCell>
        <mxCell id="mCspvE2qaWAkcVD_-xbG-101" value="&lt;h1 style=&quot;margin-top: 0px;&quot;&gt;Protected route case&lt;/h1&gt;&lt;p&gt;client makes a request to the server with access token -&amp;gt; server verifies access token -&amp;gt; server finds data from database by the access token payload -&amp;gt; server sends response with that data.&lt;/p&gt;" style="text;html=1;whiteSpace=wrap;overflow=hidden;rounded=0;" vertex="1" parent="1">
          <mxGeometry x="680" y="480" width="280" height="120" as="geometry" />
        </mxCell>
        <mxCell id="mCspvE2qaWAkcVD_-xbG-102" value="&lt;h1 style=&quot;margin-top: 0px;&quot;&gt;Access token expiration case&lt;/h1&gt;&lt;p&gt;access token expires -&amp;gt; user tries to get protected page -&amp;gt; protected route(server) responds with 403 forbidden error -&amp;gt; axios interceptor catches it and make request to the server with a refresh route -&amp;gt; server refreshes access token and retries the original request.&lt;/p&gt;" style="text;html=1;whiteSpace=wrap;overflow=hidden;rounded=0;" vertex="1" parent="1">
          <mxGeometry x="680" y="760" width="280" height="170" as="geometry" />
        </mxCell>
      </root>
    </mxGraphModel>
  </diagram>
</mxfile>
